<svg width="929" height="938" viewBox="0 0 929 938" fill="none" xmlns="http://www.w3.org/2000/svg">
<path d="M124.377 29.1008C124.377 27.3452 124.218 25.6215 123.93 23.9616L117.74 28.5262C117.74 28.7178 117.74 28.9093 117.74 29.1008C117.74 41.2626 107.849 51.158 95.6919 51.158C83.535 51.158 73.6754 41.2626 73.6754 29.1008C73.6754 16.939 83.5669 7.04362 95.6919 7.04362C100.287 7.04362 104.562 8.44813 108.104 10.8741L113.688 6.75633C108.774 2.83009 102.52 0.436035 95.6919 0.436035C79.8656 0.436035 67.0386 13.2682 67.0386 29.1008C67.0386 44.9335 79.8656 57.7656 95.6919 57.7656C111.518 57.7656 124.377 44.9335 124.377 29.1008Z" fill="#07E897"/>
<path d="M118.378 11.5762C119.719 13.3318 120.899 15.2471 121.825 17.29L95.7238 36.5382L84.8113 29.7071V21.4397L95.7238 28.3026L118.378 11.5762Z" fill="#07E897"/>
<path d="M258.454 29.1008C258.454 27.3452 258.295 25.6215 258.008 23.9616L251.849 28.5262C251.849 28.7178 251.849 28.9093 251.849 29.1008C251.849 41.2626 241.958 51.158 229.801 51.158C217.644 51.158 207.753 41.2626 207.753 29.1008C207.753 16.939 217.644 7.04362 229.801 7.04362C234.396 7.04362 238.671 8.44813 242.213 10.8741L247.797 6.75633C242.883 2.83009 236.629 0.436035 229.801 0.436035C213.975 0.436035 201.148 13.2682 201.148 29.1008C201.148 44.9335 213.975 57.7656 229.801 57.7656C245.627 57.7656 258.454 44.9335 258.454 29.1008Z" fill="#07E897"/>
<path d="M252.488 11.5762C253.828 13.3318 255.008 15.2471 255.934 17.29L229.833 36.5382L218.92 29.7071V21.4397L229.833 28.2707L252.488 11.5762Z" fill="#07E897"/>
<path d="M392.564 29.1007C392.564 27.3451 392.404 25.6213 392.117 23.9615L385.959 28.4942C385.959 28.6857 385.959 28.8772 385.959 29.0688C385.959 41.2306 376.067 51.126 363.91 51.126C351.753 51.126 341.894 41.2306 341.894 29.0688C341.894 16.907 351.785 7.01157 363.91 7.01157C368.505 7.01157 372.781 8.41608 376.322 10.8421L381.906 6.72429C376.992 2.7342 370.738 0.37207 363.91 0.37207C348.084 0.37207 335.257 13.2042 335.257 29.0368C335.257 44.8695 348.084 57.7016 363.91 57.7016C379.737 57.7655 392.564 44.9334 392.564 29.1007Z" fill="#07E897"/>
<path d="M386.597 11.5762C387.937 13.3318 389.118 15.2471 390.043 17.29L363.942 36.5382L353.03 29.7071V21.4397L363.942 28.2707L386.597 11.5762Z" fill="#07E897"/>
<path d="M526.673 29.1007C526.673 27.3451 526.513 25.6213 526.226 23.9615L520.068 28.4942C520.068 28.6857 520.068 28.8772 520.068 29.0688C520.068 41.2306 510.176 51.126 498.019 51.126C485.862 51.126 475.971 41.2306 475.971 29.0688C475.971 16.907 485.862 7.01157 498.019 7.01157C502.614 7.01157 506.89 8.41608 510.431 10.8421L516.015 6.72429C511.102 2.7342 504.848 0.37207 498.019 0.37207C482.193 0.37207 469.366 13.2042 469.366 29.0369C469.366 44.8695 482.193 57.7016 498.019 57.7016C513.846 57.7016 526.673 44.9334 526.673 29.1007Z" fill="#07E897"/>
<path d="M520.706 11.5762C522.046 13.3318 523.227 15.2471 524.152 17.29L498.051 36.5382L487.139 29.7071V21.4397L498.051 28.2707L520.706 11.5762Z" fill="#07E897"/>
<path d="M57.3067 109.062C57.3067 107.306 57.1471 105.583 56.86 103.923L50.7017 108.456C50.7017 108.647 50.7017 108.839 50.7017 109.03C50.7017 121.192 40.8103 131.087 28.6533 131.087C16.4964 131.087 6.63685 121.192 6.63685 109.03C6.63685 96.8684 16.5283 86.973 28.6533 86.973C33.2481 86.973 37.5238 88.3775 41.0655 90.8035L46.6494 86.6857C41.7356 82.6956 35.4816 80.3335 28.6533 80.3335C12.827 80.3973 0 93.2294 0 109.062C0 124.895 12.827 137.727 28.6533 137.727C44.4797 137.727 57.3067 124.895 57.3067 109.062Z" fill="#07E897"/>
<path d="M51.3397 91.5376C52.6799 93.2932 53.8605 95.2085 54.7858 97.2514L28.6851 116.5L17.7726 109.669V101.433L28.6851 108.264L51.3397 91.5376Z" fill="#07E897"/>
<path d="M191.416 109.062C191.416 107.306 191.256 105.583 190.969 103.923L184.811 108.456C184.811 108.647 184.811 108.839 184.811 109.03C184.811 121.192 174.919 131.087 162.762 131.087C150.606 131.087 140.746 121.192 140.746 109.03C140.746 96.8684 150.637 86.973 162.762 86.973C167.357 86.973 171.633 88.3775 175.175 90.8035L180.759 86.6857C175.845 82.6956 169.591 80.3335 162.762 80.3335C146.936 80.3335 134.109 93.1656 134.109 108.998C134.109 124.831 146.936 137.663 162.762 137.663C178.589 137.727 191.416 124.895 191.416 109.062Z" fill="#07E897"/>
<path d="M185.449 91.5376C186.789 93.2932 187.97 95.2085 188.895 97.2514L162.794 116.5L151.882 109.669V101.433L162.794 108.264L185.449 91.5376Z" fill="#07E897"/>
<path d="M325.525 109.062C325.525 107.306 325.365 105.583 325.078 103.923L318.92 108.456C318.92 108.647 318.92 108.839 318.92 109.03C318.92 121.192 309.029 131.087 296.872 131.087C284.715 131.087 274.855 121.192 274.855 109.03C274.855 96.8684 284.747 86.973 296.872 86.973C301.466 86.973 305.742 88.3775 309.284 90.8035L314.868 86.6857C309.954 82.6956 303.7 80.3335 296.872 80.3335C281.045 80.3335 268.218 93.1656 268.218 108.998C268.218 124.831 281.045 137.663 296.872 137.663C312.698 137.727 325.525 124.895 325.525 109.062Z" fill="#07E897"/>
<path d="M319.558 91.5376C320.898 93.2932 322.079 95.2085 323.004 97.2514L296.904 116.5L285.991 109.669V101.433L296.904 108.264L319.558 91.5376Z" fill="#07E897"/>
<path d="M459.634 109.062C459.634 107.306 459.475 105.583 459.187 103.923L453.029 108.456C453.029 108.647 453.029 108.839 453.029 109.03C453.029 121.192 443.138 131.087 430.981 131.087C418.824 131.087 408.964 121.192 408.964 109.03C408.964 96.8684 418.856 86.973 430.981 86.973C435.575 86.973 439.851 88.3775 443.393 90.8035L448.977 86.6857C444.063 82.6956 437.809 80.3335 430.981 80.3335C415.154 80.3335 402.327 93.1656 402.327 108.998C402.327 124.831 415.154 137.663 430.981 137.663C446.807 137.727 459.634 124.895 459.634 109.062Z" fill="#07E897"/>
<path d="M453.635 91.5376C454.975 93.2932 456.156 95.2085 457.081 97.2514L430.981 116.5L420.068 109.669V101.433L430.981 108.264L453.635 91.5376Z" fill="#07E897"/>
<path d="M593.743 109.062C593.743 107.306 593.584 105.583 593.296 103.923L587.106 108.487C587.106 108.679 587.106 108.87 587.106 109.062C587.106 121.224 577.215 131.119 565.058 131.119C552.901 131.119 543.041 121.224 543.041 109.062C543.041 96.9001 552.933 87.0047 565.058 87.0047C569.653 87.0047 573.928 88.4092 577.47 90.8352L583.054 86.7175C578.14 82.7274 571.886 80.3652 565.058 80.3652C549.232 80.3652 536.405 93.1974 536.405 109.03C536.405 124.863 549.232 137.695 565.058 137.695C580.916 137.727 593.743 124.895 593.743 109.062Z" fill="#07E897"/>
<path d="M587.744 91.5376C589.084 93.2932 590.265 95.2085 591.19 97.2514L565.09 116.5L554.177 109.669V101.433L565.09 108.264L587.744 91.5376Z" fill="#07E897"/>
<path d="M124.377 189.055C124.377 187.3 124.218 185.576 123.93 183.916L117.74 188.449C117.74 188.64 117.74 188.832 117.74 189.023C117.74 201.185 107.849 211.081 95.6919 211.081C83.535 211.081 73.6754 201.185 73.6754 189.023C73.6754 176.862 83.5669 166.966 95.6919 166.966C100.287 166.966 104.562 168.371 108.104 170.797L113.688 166.679C108.774 162.689 102.52 160.327 95.6919 160.327C79.8656 160.327 67.0386 173.159 67.0386 188.991C67.0386 204.824 79.8656 217.656 95.6919 217.656C111.518 217.72 124.377 204.888 124.377 189.055Z" fill="#07E897"/>
<path d="M118.378 171.531C119.719 173.286 120.899 175.202 121.825 177.245L95.7238 196.461L84.8113 189.63V181.394L95.7238 188.225L118.378 171.531Z" fill="#07E897"/>
<path d="M258.454 189.055C258.454 187.3 258.295 185.576 258.008 183.916L251.849 188.449C251.849 188.64 251.849 188.832 251.849 189.023C251.849 201.185 241.958 211.081 229.801 211.081C217.644 211.081 207.753 201.185 207.753 189.023C207.753 176.862 217.644 166.966 229.801 166.966C234.396 166.966 238.671 168.371 242.213 170.797L247.797 166.679C242.883 162.689 236.629 160.327 229.801 160.327C213.975 160.327 201.148 173.159 201.148 188.991C201.148 204.824 213.975 217.656 229.801 217.656C245.627 217.656 258.454 204.888 258.454 189.055Z" fill="#07E897"/>
<path d="M252.488 171.531C253.828 173.286 255.008 175.202 255.934 177.245L229.833 196.493L218.92 189.662V181.426L229.833 188.257L252.488 171.531Z" fill="#07E897"/>
<path d="M392.564 189.055C392.564 187.3 392.404 185.576 392.117 183.916L385.959 188.449C385.959 188.64 385.959 188.832 385.959 189.023C385.959 201.185 376.067 211.081 363.91 211.081C351.753 211.081 341.894 201.185 341.894 189.023C341.894 176.862 351.785 166.966 363.91 166.966C368.505 166.966 372.781 168.371 376.322 170.797L381.906 166.679C376.992 162.689 370.738 160.327 363.91 160.327C348.084 160.327 335.257 173.159 335.257 188.991C335.257 204.824 348.084 217.656 363.91 217.656C379.737 217.72 392.564 204.888 392.564 189.055Z" fill="#07E897"/>
<path d="M386.597 171.531C387.937 173.286 389.118 175.202 390.043 177.245L363.942 196.493L353.03 189.662V181.426L363.942 188.257L386.597 171.531Z" fill="#07E897"/>
<path d="M526.673 189.055C526.673 187.3 526.513 185.576 526.226 183.916L520.068 188.449C520.068 188.64 520.068 188.832 520.068 189.023C520.068 201.185 510.176 211.081 498.019 211.081C485.862 211.081 475.971 201.185 475.971 189.023C475.971 176.862 485.862 166.966 498.019 166.966C502.614 166.966 506.89 168.371 510.431 170.797L516.015 166.679C511.102 162.689 504.848 160.327 498.019 160.327C482.193 160.327 469.366 173.159 469.366 188.991C469.366 204.824 482.193 217.656 498.019 217.656C513.846 217.656 526.673 204.888 526.673 189.055Z" fill="#07E897"/>
<path d="M520.706 171.531C522.046 173.286 523.227 175.202 524.152 177.245L498.051 196.493L487.139 189.662V181.426L498.051 188.257L520.706 171.531Z" fill="#07E897"/>
<path d="M57.3067 269.017C57.3067 267.261 57.1471 265.537 56.86 263.877L50.7017 268.41C50.7017 268.602 50.7017 268.793 50.7017 268.985C50.7017 281.147 40.8103 291.042 28.6533 291.042C16.4964 291.042 6.63685 281.147 6.63685 268.985C6.63685 256.823 16.5283 246.928 28.6533 246.928C33.2481 246.928 37.5238 248.332 41.0655 250.758L46.6494 246.64C41.7356 242.65 35.4816 240.288 28.6533 240.288C12.827 240.352 0 253.184 0 269.017C0 284.849 12.827 297.681 28.6533 297.681C44.4797 297.681 57.3067 284.849 57.3067 269.017Z" fill="#07E897"/>
<path d="M51.3397 251.492C52.6799 253.248 53.8605 255.163 54.7858 257.206L28.6851 276.454L17.7726 269.623V261.388L28.6851 268.219L51.3397 251.492Z" fill="#07E897"/>
<path d="M191.416 269.017C191.416 267.261 191.256 265.537 190.969 263.877L184.811 268.41C184.811 268.602 184.811 268.793 184.811 268.985C184.811 281.147 174.919 291.042 162.762 291.042C150.606 291.042 140.746 281.147 140.746 268.985C140.746 256.823 150.637 246.928 162.762 246.928C167.357 246.928 171.633 248.332 175.175 250.758L180.759 246.64C175.845 242.65 169.591 240.288 162.762 240.288C146.936 240.288 134.109 253.12 134.109 268.953C134.109 284.786 146.936 297.618 162.762 297.618C178.589 297.681 191.416 284.849 191.416 269.017Z" fill="#07E897"/>
<path d="M185.449 251.492C186.789 253.248 187.97 255.163 188.895 257.206L162.794 276.454L151.882 269.623V261.388L162.794 268.219L185.449 251.492Z" fill="#07E897"/>
<path d="M325.525 269.017C325.525 267.261 325.365 265.537 325.078 263.877L318.92 268.41C318.92 268.602 318.92 268.793 318.92 268.985C318.92 281.147 309.029 291.042 296.872 291.042C284.715 291.042 274.855 281.147 274.855 268.985C274.855 256.823 284.747 246.928 296.872 246.928C301.466 246.928 305.742 248.332 309.284 250.758L314.868 246.64C309.954 242.65 303.7 240.288 296.872 240.288C281.045 240.288 268.218 253.12 268.218 268.953C268.218 284.786 281.045 297.618 296.872 297.618C312.698 297.681 325.525 284.849 325.525 269.017Z" fill="#07E897"/>
<path d="M319.558 251.492C320.898 253.248 322.079 255.163 323.004 257.206L296.904 276.454L285.991 269.623V261.388L296.904 268.219L319.558 251.492Z" fill="#07E897"/>
<path d="M459.634 269.017C459.634 267.261 459.475 265.537 459.187 263.877L453.029 268.41C453.029 268.602 453.029 268.793 453.029 268.985C453.029 281.147 443.138 291.042 430.981 291.042C418.824 291.042 408.964 281.147 408.964 268.985C408.964 256.823 418.856 246.928 430.981 246.928C435.575 246.928 439.851 248.332 443.393 250.758L448.977 246.64C444.063 242.65 437.809 240.288 430.981 240.288C415.154 240.288 402.327 253.12 402.327 268.953C402.327 284.786 415.154 297.618 430.981 297.618C446.807 297.681 459.634 284.849 459.634 269.017Z" fill="#07E897"/>
<path d="M453.635 251.492C454.975 253.248 456.156 255.163 457.081 257.206L430.981 276.454L420.068 269.623V261.388L430.981 268.219L453.635 251.492Z" fill="#07E897"/>
<path d="M593.743 269.017C593.743 267.261 593.584 265.537 593.296 263.877L587.106 268.442C587.106 268.633 587.106 268.825 587.106 269.017C587.106 281.178 577.215 291.074 565.058 291.074C552.901 291.074 543.041 281.178 543.041 269.017C543.041 256.855 552.933 246.959 565.058 246.959C569.653 246.959 573.928 248.364 577.47 250.79L583.054 246.672C578.14 242.682 571.886 240.32 565.058 240.32C549.232 240.32 536.405 253.152 536.405 268.985C536.405 284.817 549.232 297.649 565.058 297.649C580.916 297.681 593.743 284.849 593.743 269.017Z" fill="#07E897"/>
<path d="M587.744 251.492C589.084 253.248 590.265 255.163 591.19 257.206L565.09 276.454L554.177 269.623V261.388L565.09 268.219L587.744 251.492Z" fill="#07E897"/>
<path d="M124.377 348.978C124.377 347.222 124.218 345.499 123.931 343.839L117.772 348.372C117.772 348.563 117.772 348.755 117.772 348.946C117.772 361.108 107.881 371.003 95.7239 371.003C83.567 371.003 73.7074 361.108 73.7074 348.946C73.7074 336.784 83.5989 326.889 95.7239 326.889C100.319 326.889 104.594 328.294 108.136 330.719L113.72 326.602C108.806 322.612 102.552 320.25 95.7239 320.25C79.8976 320.25 67.0706 333.082 67.0706 348.914C67.0706 364.747 79.8976 377.579 95.7239 377.579C111.518 377.643 124.377 364.811 124.377 348.978Z" fill="#07E897"/>
<path d="M118.378 331.454C119.719 333.209 120.899 335.124 121.825 337.167L95.7238 356.416L84.8113 349.585V341.349L95.7238 348.18L118.378 331.454Z" fill="#07E897"/>
<path d="M258.454 348.978C258.454 347.222 258.295 345.499 258.008 343.839L251.849 348.372C251.849 348.563 251.849 348.755 251.849 348.946C251.849 361.108 241.958 371.003 229.801 371.003C217.644 371.003 207.753 361.108 207.753 348.946C207.753 336.784 217.644 326.889 229.801 326.889C234.396 326.889 238.671 328.294 242.213 330.719L247.797 326.602C242.883 322.612 236.629 320.25 229.801 320.25C213.975 320.25 201.148 333.082 201.148 348.914C201.148 364.747 213.975 377.579 229.801 377.579C245.627 377.579 258.454 364.811 258.454 348.978Z" fill="#07E897"/>
<path d="M252.488 331.454C253.828 333.209 255.008 335.124 255.934 337.167L229.833 356.416L218.92 349.585V341.349L229.833 348.18L252.488 331.454Z" fill="#07E897"/>
<path d="M392.564 348.978C392.564 347.222 392.404 345.499 392.117 343.839L385.959 348.372C385.959 348.563 385.959 348.755 385.959 348.946C385.959 361.108 376.067 371.003 363.91 371.003C351.753 371.003 341.894 361.108 341.894 348.946C341.894 336.784 351.785 326.889 363.91 326.889C368.505 326.889 372.781 328.294 376.322 330.719L381.906 326.602C376.992 322.612 370.738 320.25 363.91 320.25C348.084 320.25 335.257 333.082 335.257 348.914C335.257 364.747 348.084 377.579 363.91 377.579C379.737 377.643 392.564 364.811 392.564 348.978Z" fill="#07E897"/>
<path d="M386.597 331.454C387.937 333.209 389.118 335.124 390.043 337.167L363.942 356.416L353.03 349.585V341.349L363.942 348.18L386.597 331.454Z" fill="#07E897"/>
<path d="M526.673 348.978C526.673 347.222 526.513 345.499 526.226 343.839L520.068 348.372C520.068 348.563 520.068 348.755 520.068 348.946C520.068 361.108 510.176 371.003 498.019 371.003C485.862 371.003 475.971 361.108 475.971 348.946C475.971 336.784 485.862 326.889 498.019 326.889C502.614 326.889 506.89 328.294 510.431 330.719L516.015 326.602C511.102 322.612 504.848 320.25 498.019 320.25C482.193 320.25 469.366 333.082 469.366 348.914C469.366 364.747 482.193 377.579 498.019 377.579C513.846 377.579 526.673 364.811 526.673 348.978Z" fill="#07E897"/>
<path d="M520.706 331.454C522.046 333.209 523.227 335.124 524.152 337.167L498.051 356.416L487.139 349.585V341.349L498.051 348.18L520.706 331.454Z" fill="#07E897"/>
<path d="M57.3067 428.971C57.3067 427.216 57.1471 425.492 56.86 423.832L50.7017 428.365C50.7017 428.556 50.7017 428.748 50.7017 428.939C50.7017 441.101 40.8103 450.997 28.6533 450.997C16.4964 450.997 6.63685 441.101 6.63685 428.939C6.63685 416.778 16.5283 406.882 28.6533 406.882C33.2481 406.882 37.5238 408.287 41.0655 410.713L46.6494 406.595C41.7356 402.605 35.4816 400.243 28.6533 400.243C12.827 400.243 0 413.075 0 428.907C0 444.74 12.827 457.572 28.6533 457.572C44.4797 457.636 57.3067 444.772 57.3067 428.971Z" fill="#07E897"/>
<path d="M51.3397 411.415C52.6799 413.171 53.8605 415.086 54.7858 417.129L28.6851 436.377L17.7726 429.546V421.31L28.6851 428.141L51.3397 411.415Z" fill="#07E897"/>
<path d="M191.416 428.971C191.416 427.216 191.256 425.492 190.969 423.832L184.811 428.365C184.811 428.556 184.811 428.748 184.811 428.939C184.811 441.101 174.919 450.997 162.762 450.997C150.606 450.997 140.746 441.101 140.746 428.939C140.746 416.778 150.637 406.882 162.762 406.882C167.357 406.882 171.633 408.287 175.175 410.713L180.759 406.595C175.845 402.605 169.591 400.243 162.762 400.243C146.936 400.243 134.109 413.075 134.109 428.907C134.109 444.74 146.936 457.572 162.762 457.572C178.589 457.636 191.416 444.772 191.416 428.971Z" fill="#07E897"/>
<path d="M185.449 411.415C186.789 413.171 187.97 415.086 188.895 417.129L162.794 436.377L151.882 429.546V421.31L162.794 428.141L185.449 411.415Z" fill="#07E897"/>
<path d="M325.525 428.971C325.525 427.216 325.365 425.492 325.078 423.832L318.92 428.365C318.92 428.556 318.92 428.748 318.92 428.939C318.92 441.101 309.029 450.997 296.872 450.997C284.715 450.997 274.855 441.101 274.855 428.939C274.855 416.778 284.747 406.882 296.872 406.882C301.466 406.882 305.742 408.287 309.284 410.713L314.868 406.595C309.954 402.605 303.7 400.243 296.872 400.243C281.045 400.243 268.218 413.075 268.218 428.907C268.218 444.74 281.045 457.572 296.872 457.572C312.698 457.636 325.525 444.772 325.525 428.971Z" fill="#07E897"/>
<path d="M319.558 411.415C320.898 413.171 322.079 415.086 323.004 417.129L296.904 436.377L285.991 429.546V421.31L296.904 428.141L319.558 411.415Z" fill="#07E897"/>
<path d="M459.634 428.971C459.634 427.216 459.475 425.492 459.187 423.832L453.029 428.365C453.029 428.556 453.029 428.748 453.029 428.939C453.029 441.101 443.138 450.997 430.981 450.997C418.824 450.997 408.964 441.101 408.964 428.939C408.964 416.778 418.856 406.882 430.981 406.882C435.575 406.882 439.851 408.287 443.393 410.713L448.977 406.595C444.063 402.605 437.809 400.243 430.981 400.243C415.154 400.243 402.327 413.075 402.327 428.907C402.327 444.74 415.154 457.572 430.981 457.572C446.807 457.636 459.634 444.772 459.634 428.971Z" fill="#07E897"/>
<path d="M453.635 411.415C454.975 413.171 456.156 415.086 457.081 417.129L430.981 436.377L420.068 429.546V421.31L430.981 428.141L453.635 411.415Z" fill="#07E897"/>
<path d="M593.743 428.971C593.743 427.216 593.584 425.492 593.297 423.832L587.138 428.365C587.138 428.556 587.138 428.748 587.138 428.939C587.138 441.101 577.247 450.997 565.09 450.997C552.933 450.997 543.073 441.101 543.073 428.939C543.073 416.778 552.965 406.882 565.09 406.882C569.685 406.882 573.96 408.287 577.502 410.713L583.086 406.595C578.172 402.605 571.918 400.243 565.09 400.243C549.264 400.243 536.437 413.075 536.437 428.907C536.437 444.74 549.264 457.572 565.09 457.572C580.916 457.636 593.743 444.772 593.743 428.971Z" fill="#07E897"/>
<path d="M587.744 411.415C589.084 413.171 590.265 415.086 591.19 417.129L565.09 436.377L554.177 429.546V421.31L565.09 428.141L587.744 411.415Z" fill="#07E897"/>
<path d="M124.377 508.933C124.377 507.177 124.218 505.453 123.931 503.794L117.772 508.326C117.772 508.518 117.772 508.709 117.772 508.901C117.772 521.063 107.881 530.958 95.7239 530.958C83.567 530.958 73.7074 521.063 73.7074 508.901C73.7074 496.739 83.5989 486.844 95.7239 486.844C100.319 486.844 104.594 488.248 108.136 490.674L113.72 486.556C108.806 482.566 102.552 480.204 95.7239 480.204C79.8976 480.204 67.0706 493.036 67.0706 508.869C67.0706 524.702 79.8976 537.534 95.7239 537.534C111.518 537.598 124.377 524.765 124.377 508.933Z" fill="#07E897"/>
<path d="M118.378 491.408C119.719 493.164 120.899 495.079 121.825 497.122L95.7238 516.338L84.8113 509.507V501.272L95.7238 508.103L118.378 491.408Z" fill="#07E897"/>
<path d="M258.454 508.933C258.454 507.177 258.295 505.453 258.008 503.794L251.849 508.326C251.849 508.518 251.849 508.709 251.849 508.901C251.849 521.063 241.958 530.958 229.801 530.958C217.644 530.958 207.753 521.063 207.753 508.901C207.753 496.739 217.644 486.844 229.801 486.844C234.396 486.844 238.671 488.248 242.213 490.674L247.797 486.556C242.883 482.566 236.629 480.204 229.801 480.204C213.975 480.204 201.148 493.036 201.148 508.869C201.148 524.702 213.975 537.534 229.801 537.534C245.627 537.534 258.454 524.765 258.454 508.933Z" fill="#07E897"/>
<path d="M252.488 491.408C253.828 493.164 255.008 495.079 255.934 497.122L229.833 516.37L218.92 509.539V501.304L229.833 508.135L252.488 491.408Z" fill="#07E897"/>
<path d="M392.564 508.933C392.564 507.177 392.404 505.453 392.117 503.794L385.959 508.326C385.959 508.518 385.959 508.709 385.959 508.901C385.959 521.063 376.067 530.958 363.91 530.958C351.753 530.958 341.894 521.063 341.894 508.901C341.894 496.739 351.785 486.844 363.91 486.844C368.505 486.844 372.781 488.248 376.322 490.674L381.906 486.556C376.992 482.566 370.738 480.204 363.91 480.204C348.084 480.204 335.257 493.036 335.257 508.869C335.257 524.702 348.084 537.534 363.91 537.534C379.737 537.598 392.564 524.765 392.564 508.933Z" fill="#07E897"/>
<path d="M386.597 491.408C387.937 493.164 389.118 495.079 390.043 497.122L363.942 516.37L353.03 509.539V501.304L363.942 508.135L386.597 491.408Z" fill="#07E897"/>
<path d="M526.673 508.933C526.673 507.177 526.513 505.453 526.226 503.794L520.068 508.326C520.068 508.518 520.068 508.709 520.068 508.901C520.068 521.063 510.176 530.958 498.019 530.958C485.862 530.958 475.971 521.063 475.971 508.901C475.971 496.739 485.862 486.844 498.019 486.844C502.614 486.844 506.89 488.248 510.431 490.674L516.015 486.556C511.102 482.566 504.848 480.204 498.019 480.204C482.193 480.204 469.366 493.036 469.366 508.869C469.366 524.702 482.193 537.534 498.019 537.534C513.846 537.534 526.673 524.765 526.673 508.933Z" fill="#07E897"/>
<path d="M520.706 491.408C522.046 493.164 523.227 495.079 524.152 497.122L498.051 516.37L487.139 509.539V501.304L498.051 508.135L520.706 491.408Z" fill="#07E897"/>
<path d="M660.782 29.1007C660.782 27.3451 660.622 25.6213 660.335 23.9615L654.177 28.4942C654.177 28.6857 654.177 28.8772 654.177 29.0688C654.177 41.2306 644.285 51.126 632.128 51.126C619.972 51.126 610.112 41.2306 610.112 29.0688C610.112 16.907 620.003 7.01157 632.128 7.01157C636.723 7.01157 640.999 8.41608 644.541 10.8421L650.125 6.72429C645.211 2.7342 638.957 0.37207 632.128 0.37207C616.302 0.37207 603.475 13.2042 603.475 29.0368C603.475 44.8695 616.302 57.7016 632.128 57.7016C647.955 57.7655 660.782 44.9334 660.782 29.1007Z" fill="#07E897"/>
<path d="M654.815 11.5762C656.155 13.3318 657.336 15.2471 658.261 17.29L632.16 36.5382L621.248 29.7071V21.4397L632.16 28.2707L654.815 11.5762Z" fill="#07E897"/>
<path d="M794.891 29.1007C794.891 27.3451 794.731 25.6213 794.444 23.9615L788.286 28.4942C788.286 28.6857 788.286 28.8772 788.286 29.0688C788.286 41.2306 778.395 51.126 766.238 51.126C754.081 51.126 744.221 41.2306 744.221 29.0688C744.221 16.907 754.113 7.01157 766.238 7.01157C770.832 7.01157 775.108 8.41608 778.65 10.8421L784.234 6.72429C779.32 2.7342 773.066 0.37207 766.238 0.37207C750.411 0.37207 737.584 13.2042 737.584 29.0369C737.584 44.8695 750.411 57.7016 766.238 57.7016C782.064 57.7016 794.891 44.9334 794.891 29.1007Z" fill="#07E897"/>
<path d="M788.924 11.5762C790.264 13.3318 791.445 15.2471 792.37 17.29L766.269 36.5382L755.357 29.7071V21.4397L766.269 28.2707L788.924 11.5762Z" fill="#07E897"/>
<path d="M929 29.1007C929 27.3451 928.84 25.6213 928.553 23.9615L922.395 28.4942C922.395 28.6857 922.395 28.8772 922.395 29.0688C922.395 41.2306 912.504 51.126 900.347 51.126C888.19 51.126 878.298 41.2306 878.298 29.0688C878.298 16.907 888.19 7.01157 900.347 7.01157C904.941 7.01157 909.217 8.41608 912.759 10.8421L918.343 6.72429C913.429 2.7342 907.175 0.37207 900.347 0.37207C884.52 0.37207 871.693 13.2042 871.693 29.0368C871.693 44.8695 884.52 57.7016 900.347 57.7016C916.173 57.7655 929 44.9334 929 29.1007Z" fill="#07E897"/>
<path d="M923.033 11.5762C924.373 13.3318 925.554 15.2471 926.479 17.29L900.379 36.5382L889.466 29.7071V21.4397L900.379 28.2707L923.033 11.5762Z" fill="#07E897"/>
<path d="M727.852 109.062C727.852 107.306 727.693 105.583 727.406 103.923L721.247 108.456C721.247 108.647 721.247 108.839 721.247 109.03C721.247 121.192 711.356 131.087 699.199 131.087C687.042 131.087 677.151 121.192 677.151 109.03C677.151 96.8684 687.042 86.973 699.199 86.973C703.794 86.973 708.07 88.3775 711.611 90.8035L717.195 86.6857C712.281 82.6956 706.027 80.3335 699.199 80.3335C683.373 80.3335 670.546 93.1656 670.546 108.998C670.546 124.831 683.373 137.663 699.199 137.663C715.025 137.727 727.852 124.895 727.852 109.062Z" fill="#07E897"/>
<path d="M721.854 91.5376C723.194 93.2932 724.374 95.2085 725.3 97.2514L699.199 116.5L688.286 109.669V101.433L699.199 108.264L721.854 91.5376Z" fill="#07E897"/>
<path d="M593.743 109.062C593.743 107.306 593.584 105.583 593.296 103.923L587.106 108.487C587.106 108.679 587.106 108.87 587.106 109.062C587.106 121.224 577.215 131.119 565.058 131.119C552.901 131.119 543.041 121.224 543.041 109.062C543.041 96.9001 552.933 87.0047 565.058 87.0047C569.653 87.0047 573.928 88.4092 577.47 90.8352L583.054 86.7175C578.14 82.7274 571.886 80.3652 565.058 80.3652C549.232 80.3652 536.405 93.1974 536.405 109.03C536.405 124.863 549.232 137.695 565.058 137.695C580.916 137.727 593.743 124.895 593.743 109.062Z" fill="#07E897"/>
<path d="M587.744 91.5376C589.084 93.2932 590.265 95.2085 591.19 97.2514L565.09 116.5L554.177 109.669V101.433L565.09 108.264L587.744 91.5376Z" fill="#07E897"/>
<path d="M861.961 109.062C861.961 107.306 861.802 105.583 861.515 103.923L855.356 108.456C855.356 108.647 855.356 108.839 855.356 109.03C855.356 121.192 845.465 131.087 833.308 131.087C821.151 131.087 811.292 121.192 811.292 109.03C811.292 96.8684 821.183 86.973 833.308 86.973C837.903 86.973 842.178 88.3775 845.72 90.8035L851.304 86.6857C846.39 82.6956 840.136 80.3335 833.308 80.3335C817.482 80.3335 804.655 93.1656 804.655 108.998C804.655 124.831 817.482 137.663 833.308 137.663C849.103 137.727 861.961 124.895 861.961 109.062Z" fill="#07E897"/>
<path d="M855.963 91.5376C857.303 93.2932 858.483 95.2085 859.409 97.2514L833.308 116.5L822.396 109.669V101.433L833.308 108.264L855.963 91.5376Z" fill="#07E897"/>
<path d="M660.782 189.055C660.782 187.3 660.622 185.576 660.335 183.916L654.177 188.449C654.177 188.64 654.177 188.832 654.177 189.023C654.177 201.185 644.285 211.081 632.128 211.081C619.972 211.081 610.112 201.185 610.112 189.023C610.112 176.862 620.003 166.966 632.128 166.966C636.723 166.966 640.999 168.371 644.541 170.797L650.125 166.679C645.211 162.689 638.957 160.327 632.128 160.327C616.302 160.327 603.475 173.159 603.475 188.991C603.475 204.824 616.302 217.656 632.128 217.656C647.955 217.72 660.782 204.888 660.782 189.055Z" fill="#07E897"/>
<path d="M654.815 171.531C656.155 173.286 657.336 175.202 658.261 177.245L632.16 196.493L621.248 189.662V181.426L632.16 188.257L654.815 171.531Z" fill="#07E897"/>
<path d="M794.891 189.055C794.891 187.3 794.731 185.576 794.444 183.916L788.286 188.449C788.286 188.64 788.286 188.832 788.286 189.023C788.286 201.185 778.395 211.081 766.238 211.081C754.081 211.081 744.221 201.185 744.221 189.023C744.221 176.862 754.113 166.966 766.238 166.966C770.832 166.966 775.108 168.371 778.65 170.797L784.234 166.679C779.32 162.689 773.066 160.327 766.238 160.327C750.411 160.327 737.584 173.159 737.584 188.991C737.584 204.824 750.411 217.656 766.238 217.656C782.064 217.656 794.891 204.888 794.891 189.055Z" fill="#07E897"/>
<path d="M788.924 171.531C790.264 173.286 791.445 175.202 792.37 177.245L766.269 196.493L755.357 189.662V181.426L766.269 188.257L788.924 171.531Z" fill="#07E897"/>
<path d="M929 189.055C929 187.3 928.84 185.576 928.553 183.916L922.395 188.449C922.395 188.64 922.395 188.832 922.395 189.023C922.395 201.185 912.504 211.081 900.347 211.081C888.19 211.081 878.298 201.185 878.298 189.023C878.298 176.862 888.19 166.966 900.347 166.966C904.941 166.966 909.217 168.371 912.759 170.797L918.343 166.679C913.429 162.689 907.175 160.327 900.347 160.327C884.52 160.327 871.693 173.159 871.693 188.991C871.693 204.824 884.52 217.656 900.347 217.656C916.173 217.72 929 204.888 929 189.055Z" fill="#07E897"/>
<path d="M923.033 171.531C924.373 173.286 925.554 175.202 926.479 177.245L900.379 196.493L889.466 189.662V181.426L900.379 188.257L923.033 171.531Z" fill="#07E897"/>
<path d="M727.852 269.017C727.852 267.261 727.693 265.537 727.406 263.877L721.247 268.41C721.247 268.602 721.247 268.793 721.247 268.985C721.247 281.147 711.356 291.042 699.199 291.042C687.042 291.042 677.151 281.147 677.151 268.985C677.151 256.823 687.042 246.928 699.199 246.928C703.794 246.928 708.07 248.332 711.611 250.758L717.195 246.64C712.281 242.65 706.027 240.288 699.199 240.288C683.373 240.288 670.546 253.12 670.546 268.953C670.546 284.786 683.373 297.618 699.199 297.618C715.025 297.681 727.852 284.849 727.852 269.017Z" fill="#07E897"/>
<path d="M721.854 251.492C723.194 253.248 724.374 255.163 725.3 257.206L699.199 276.454L688.286 269.623V261.388L699.199 268.219L721.854 251.492Z" fill="#07E897"/>
<path d="M593.743 269.017C593.743 267.261 593.584 265.537 593.296 263.877L587.106 268.442C587.106 268.633 587.106 268.825 587.106 269.017C587.106 281.178 577.215 291.074 565.058 291.074C552.901 291.074 543.041 281.178 543.041 269.017C543.041 256.855 552.933 246.959 565.058 246.959C569.653 246.959 573.928 248.364 577.47 250.79L583.054 246.672C578.14 242.682 571.886 240.32 565.058 240.32C549.232 240.32 536.405 253.152 536.405 268.985C536.405 284.817 549.232 297.649 565.058 297.649C580.916 297.681 593.743 284.849 593.743 269.017Z" fill="#07E897"/>
<path d="M587.744 251.492C589.084 253.248 590.265 255.163 591.19 257.206L565.09 276.454L554.177 269.623V261.388L565.09 268.219L587.744 251.492Z" fill="#07E897"/>
<path d="M861.961 269.017C861.961 267.261 861.802 265.537 861.515 263.877L855.356 268.41C855.356 268.602 855.356 268.793 855.356 268.985C855.356 281.147 845.465 291.042 833.308 291.042C821.151 291.042 811.292 281.147 811.292 268.985C811.292 256.823 821.183 246.928 833.308 246.928C837.903 246.928 842.178 248.332 845.72 250.758L851.304 246.64C846.39 242.65 840.136 240.288 833.308 240.288C817.482 240.288 804.655 253.12 804.655 268.953C804.655 284.786 817.482 297.618 833.308 297.618C849.103 297.681 861.961 284.849 861.961 269.017Z" fill="#07E897"/>
<path d="M855.963 251.492C857.303 253.248 858.483 255.163 859.409 257.206L833.308 276.454L822.396 269.623V261.388L833.308 268.219L855.963 251.492Z" fill="#07E897"/>
<path d="M660.782 348.978C660.782 347.222 660.622 345.499 660.335 343.839L654.177 348.372C654.177 348.563 654.177 348.755 654.177 348.946C654.177 361.108 644.285 371.003 632.128 371.003C619.972 371.003 610.112 361.108 610.112 348.946C610.112 336.784 620.003 326.889 632.128 326.889C636.723 326.889 640.999 328.294 644.541 330.719L650.125 326.602C645.211 322.612 638.957 320.25 632.128 320.25C616.302 320.25 603.475 333.082 603.475 348.914C603.475 364.747 616.302 377.579 632.128 377.579C647.955 377.643 660.782 364.811 660.782 348.978Z" fill="#07E897"/>
<path d="M654.815 331.454C656.155 333.209 657.336 335.124 658.261 337.167L632.16 356.416L621.248 349.585V341.349L632.16 348.18L654.815 331.454Z" fill="#07E897"/>
<path d="M794.891 348.978C794.891 347.222 794.731 345.499 794.444 343.839L788.286 348.372C788.286 348.563 788.286 348.755 788.286 348.946C788.286 361.108 778.395 371.003 766.238 371.003C754.081 371.003 744.221 361.108 744.221 348.946C744.221 336.784 754.113 326.889 766.238 326.889C770.832 326.889 775.108 328.294 778.65 330.719L784.234 326.602C779.32 322.612 773.066 320.25 766.238 320.25C750.411 320.25 737.584 333.082 737.584 348.914C737.584 364.747 750.411 377.579 766.238 377.579C782.064 377.579 794.891 364.811 794.891 348.978Z" fill="#07E897"/>
<path d="M788.924 331.454C790.264 333.209 791.445 335.124 792.37 337.167L766.269 356.416L755.357 349.585V341.349L766.269 348.18L788.924 331.454Z" fill="#07E897"/>
<path d="M929 348.978C929 347.222 928.84 345.499 928.553 343.839L922.395 348.372C922.395 348.563 922.395 348.755 922.395 348.946C922.395 361.108 912.504 371.003 900.347 371.003C888.19 371.003 878.298 361.108 878.298 348.946C878.298 336.784 888.19 326.889 900.347 326.889C904.941 326.889 909.217 328.294 912.759 330.719L918.343 326.602C913.429 322.612 907.175 320.25 900.347 320.25C884.52 320.25 871.693 333.082 871.693 348.914C871.693 364.747 884.52 377.579 900.347 377.579C916.173 377.643 929 364.811 929 348.978Z" fill="#07E897"/>
<path d="M923.033 331.454C924.373 333.209 925.554 335.124 926.479 337.167L900.379 356.416L889.466 349.585V341.349L900.379 348.18L923.033 331.454Z" fill="#07E897"/>
<path d="M727.852 428.971C727.852 427.216 727.693 425.492 727.406 423.832L721.247 428.365C721.247 428.556 721.247 428.748 721.247 428.939C721.247 441.101 711.356 450.997 699.199 450.997C687.042 450.997 677.151 441.101 677.151 428.939C677.151 416.778 687.042 406.882 699.199 406.882C703.794 406.882 708.07 408.287 711.611 410.713L717.195 406.595C712.281 402.605 706.027 400.243 699.199 400.243C683.373 400.243 670.546 413.075 670.546 428.907C670.546 444.74 683.373 457.572 699.199 457.572C715.025 457.636 727.852 444.772 727.852 428.971Z" fill="#07E897"/>
<path d="M721.854 411.415C723.194 413.171 724.374 415.086 725.3 417.129L699.199 436.377L688.286 429.546V421.31L699.199 428.141L721.854 411.415Z" fill="#07E897"/>
<path d="M593.743 428.971C593.743 427.216 593.584 425.492 593.297 423.832L587.138 428.365C587.138 428.556 587.138 428.748 587.138 428.939C587.138 441.101 577.247 450.997 565.09 450.997C552.933 450.997 543.073 441.101 543.073 428.939C543.073 416.778 552.965 406.882 565.09 406.882C569.685 406.882 573.96 408.287 577.502 410.713L583.086 406.595C578.172 402.605 571.918 400.243 565.09 400.243C549.264 400.243 536.437 413.075 536.437 428.907C536.437 444.74 549.264 457.572 565.09 457.572C580.916 457.636 593.743 444.772 593.743 428.971Z" fill="#07E897"/>
<path d="M587.744 411.415C589.084 413.171 590.265 415.086 591.19 417.129L565.09 436.377L554.177 429.546V421.31L565.09 428.141L587.744 411.415Z" fill="#07E897"/>
<path d="M861.961 428.971C861.961 427.216 861.802 425.492 861.515 423.832L855.356 428.365C855.356 428.556 855.356 428.748 855.356 428.939C855.356 441.101 845.465 450.997 833.308 450.997C821.151 450.997 811.292 441.101 811.292 428.939C811.292 416.778 821.183 406.882 833.308 406.882C837.903 406.882 842.178 408.287 845.72 410.713L851.304 406.595C846.39 402.605 840.136 400.243 833.308 400.243C817.482 400.243 804.655 413.075 804.655 428.907C804.655 444.74 817.482 457.572 833.308 457.572C849.103 457.636 861.961 444.772 861.961 428.971Z" fill="#07E897"/>
<path d="M855.963 411.415C857.303 413.171 858.483 415.086 859.409 417.129L833.308 436.377L822.396 429.546V421.31L833.308 428.141L855.963 411.415Z" fill="#07E897"/>
<path d="M660.782 508.933C660.782 507.177 660.622 505.453 660.335 503.794L654.177 508.326C654.177 508.518 654.177 508.709 654.177 508.901C654.177 521.063 644.285 530.958 632.128 530.958C619.972 530.958 610.112 521.063 610.112 508.901C610.112 496.739 620.003 486.844 632.128 486.844C636.723 486.844 640.999 488.248 644.541 490.674L650.125 486.556C645.211 482.566 638.957 480.204 632.128 480.204C616.302 480.204 603.475 493.036 603.475 508.869C603.475 524.702 616.302 537.534 632.128 537.534C647.955 537.598 660.782 524.765 660.782 508.933Z" fill="#07E897"/>
<path d="M654.815 491.408C656.155 493.164 657.336 495.079 658.261 497.122L632.16 516.37L621.248 509.539V501.304L632.16 508.135L654.815 491.408Z" fill="#07E897"/>
<path d="M794.891 508.933C794.891 507.177 794.731 505.453 794.444 503.794L788.286 508.326C788.286 508.518 788.286 508.709 788.286 508.901C788.286 521.063 778.395 530.958 766.238 530.958C754.081 530.958 744.221 521.063 744.221 508.901C744.221 496.739 754.113 486.844 766.238 486.844C770.832 486.844 775.108 488.248 778.65 490.674L784.234 486.556C779.32 482.566 773.066 480.204 766.238 480.204C750.411 480.204 737.584 493.036 737.584 508.869C737.584 524.702 750.411 537.534 766.238 537.534C782.064 537.534 794.891 524.765 794.891 508.933Z" fill="#07E897"/>
<path d="M788.924 491.408C790.264 493.164 791.445 495.079 792.37 497.122L766.269 516.37L755.357 509.539V501.304L766.269 508.135L788.924 491.408Z" fill="#07E897"/>
<path d="M929 508.933C929 507.177 928.84 505.453 928.553 503.794L922.395 508.326C922.395 508.518 922.395 508.709 922.395 508.901C922.395 521.063 912.504 530.958 900.347 530.958C888.19 530.958 878.298 521.063 878.298 508.901C878.298 496.739 888.19 486.844 900.347 486.844C904.941 486.844 909.217 488.248 912.759 490.674L918.343 486.556C913.429 482.566 907.175 480.204 900.347 480.204C884.52 480.204 871.693 493.036 871.693 508.869C871.693 524.702 884.52 537.534 900.347 537.534C916.173 537.598 929 524.765 929 508.933Z" fill="#07E897"/>
<path d="M923.033 491.408C924.373 493.164 925.554 495.079 926.479 497.122L900.379 516.37L889.466 509.539V501.304L900.379 508.135L923.033 491.408Z" fill="#07E897"/>
<path d="M57.3067 588.894C57.3067 587.138 57.1471 585.414 56.86 583.754L50.7017 588.287C50.7017 588.479 50.7017 588.67 50.7017 588.862C50.7017 601.023 40.8103 610.919 28.6533 610.919C16.4964 610.919 6.63685 601.023 6.63685 588.862C6.63685 576.7 16.5283 566.805 28.6533 566.805C33.2481 566.805 37.5238 568.209 41.0655 570.635L46.6494 566.517C41.7356 562.527 35.4816 560.165 28.6533 560.165C12.827 560.165 0 572.997 0 588.83C0 604.662 12.827 617.495 28.6533 617.495C44.4797 617.558 57.3067 604.726 57.3067 588.894Z" fill="#07E897"/>
<path d="M51.3397 571.37C52.6799 573.125 53.8605 575.04 54.7858 577.083L28.6851 596.332L17.7726 589.501V581.265L28.6851 588.096L51.3397 571.37Z" fill="#07E897"/>
<path d="M191.416 588.894C191.416 587.138 191.256 585.414 190.969 583.754L184.811 588.287C184.811 588.479 184.811 588.67 184.811 588.862C184.811 601.023 174.919 610.919 162.762 610.919C150.606 610.919 140.746 601.023 140.746 588.862C140.746 576.7 150.637 566.805 162.762 566.805C167.357 566.805 171.633 568.209 175.175 570.635L180.759 566.517C175.845 562.527 169.591 560.165 162.762 560.165C146.936 560.165 134.109 572.997 134.109 588.83C134.109 604.662 146.936 617.495 162.762 617.495C178.589 617.558 191.416 604.726 191.416 588.894Z" fill="#07E897"/>
<path d="M185.449 571.37C186.789 573.125 187.97 575.04 188.895 577.083L162.794 596.332L151.882 589.501V581.265L162.794 588.096L185.449 571.37Z" fill="#07E897"/>
<path d="M325.525 588.894C325.525 587.138 325.365 585.414 325.078 583.754L318.92 588.287C318.92 588.479 318.92 588.67 318.92 588.862C318.92 601.023 309.029 610.919 296.872 610.919C284.715 610.919 274.855 601.023 274.855 588.862C274.855 576.7 284.747 566.805 296.872 566.805C301.466 566.805 305.742 568.209 309.284 570.635L314.868 566.517C309.954 562.527 303.7 560.165 296.872 560.165C281.045 560.165 268.218 572.997 268.218 588.83C268.218 604.662 281.045 617.495 296.872 617.495C312.698 617.558 325.525 604.726 325.525 588.894Z" fill="#07E897"/>
<path d="M319.558 571.37C320.898 573.125 322.079 575.04 323.004 577.083L296.904 596.332L285.991 589.501V581.265L296.904 588.096L319.558 571.37Z" fill="#07E897"/>
<path d="M459.634 588.894C459.634 587.138 459.475 585.414 459.187 583.754L453.029 588.287C453.029 588.479 453.029 588.67 453.029 588.862C453.029 601.023 443.138 610.919 430.981 610.919C418.824 610.919 408.964 601.023 408.964 588.862C408.964 576.7 418.856 566.805 430.981 566.805C435.575 566.805 439.851 568.209 443.393 570.635L448.977 566.517C444.063 562.527 437.809 560.165 430.981 560.165C415.154 560.165 402.327 572.997 402.327 588.83C402.327 604.662 415.154 617.495 430.981 617.495C446.807 617.558 459.634 604.726 459.634 588.894Z" fill="#07E897"/>
<path d="M453.635 571.37C454.975 573.125 456.156 575.04 457.081 577.083L430.981 596.332L420.068 589.501V581.265L430.981 588.096L453.635 571.37Z" fill="#07E897"/>
<path d="M593.743 588.894C593.743 587.138 593.584 585.414 593.297 583.754L587.138 588.287C587.138 588.479 587.138 588.67 587.138 588.862C587.138 601.023 577.247 610.919 565.09 610.919C552.933 610.919 543.073 601.023 543.073 588.862C543.073 576.7 552.965 566.805 565.09 566.805C569.685 566.805 573.96 568.209 577.502 570.635L583.086 566.517C578.172 562.527 571.918 560.165 565.09 560.165C549.264 560.165 536.437 572.997 536.437 588.83C536.437 604.662 549.264 617.495 565.09 617.495C580.916 617.558 593.743 604.726 593.743 588.894Z" fill="#07E897"/>
<path d="M587.744 571.37C589.084 573.125 590.265 575.04 591.19 577.083L565.09 596.332L554.177 589.501V581.265L565.09 588.096L587.744 571.37Z" fill="#07E897"/>
<path d="M124.377 668.855C124.377 667.099 124.218 665.376 123.931 663.716L117.772 668.249C117.772 668.44 117.772 668.632 117.772 668.823C117.772 680.985 107.881 690.88 95.7239 690.88C83.567 690.88 73.7074 680.985 73.7074 668.823C73.7074 656.661 83.5989 646.766 95.7239 646.766C100.319 646.766 104.594 648.17 108.136 650.596L113.72 646.479C108.806 642.489 102.552 640.126 95.7239 640.126C79.8976 640.126 67.0706 652.959 67.0706 668.791C67.0706 684.624 79.8976 697.456 95.7239 697.456C111.518 697.52 124.377 684.688 124.377 668.855Z" fill="#07E897"/>
<path d="M118.378 651.331C119.719 653.087 120.899 655.002 121.825 657.045L95.7238 676.293L84.8113 669.462V661.226L95.7238 668.057L118.378 651.331Z" fill="#07E897"/>
<path d="M258.454 668.855C258.454 667.099 258.295 665.376 258.008 663.716L251.849 668.249C251.849 668.44 251.849 668.632 251.849 668.823C251.849 680.985 241.958 690.88 229.801 690.88C217.644 690.88 207.753 680.985 207.753 668.823C207.753 656.661 217.644 646.766 229.801 646.766C234.396 646.766 238.671 648.17 242.213 650.596L247.797 646.479C242.883 642.489 236.629 640.126 229.801 640.126C213.975 640.126 201.148 652.959 201.148 668.791C201.148 684.624 213.975 697.456 229.801 697.456C245.627 697.456 258.454 684.688 258.454 668.855Z" fill="#07E897"/>
<path d="M252.488 651.331C253.828 653.087 255.008 655.002 255.934 657.045L229.833 676.293L218.92 669.462V661.226L229.833 668.057L252.488 651.331Z" fill="#07E897"/>
<path d="M392.564 668.855C392.564 667.099 392.404 665.376 392.117 663.716L385.959 668.249C385.959 668.44 385.959 668.632 385.959 668.823C385.959 680.985 376.067 690.88 363.91 690.88C351.753 690.88 341.894 680.985 341.894 668.823C341.894 656.661 351.785 646.766 363.91 646.766C368.505 646.766 372.781 648.17 376.322 650.596L381.906 646.479C376.992 642.489 370.738 640.126 363.91 640.126C348.084 640.126 335.257 652.959 335.257 668.791C335.257 684.624 348.084 697.456 363.91 697.456C379.737 697.52 392.564 684.688 392.564 668.855Z" fill="#07E897"/>
<path d="M386.597 651.331C387.937 653.087 389.118 655.002 390.043 657.045L363.942 676.293L353.03 669.462V661.226L363.942 668.057L386.597 651.331Z" fill="#07E897"/>
<path d="M526.673 668.855C526.673 667.099 526.513 665.376 526.226 663.716L520.068 668.249C520.068 668.44 520.068 668.632 520.068 668.823C520.068 680.985 510.176 690.88 498.019 690.88C485.862 690.88 475.971 680.985 475.971 668.823C475.971 656.661 485.862 646.766 498.019 646.766C502.614 646.766 506.89 648.17 510.431 650.596L516.015 646.479C511.102 642.489 504.848 640.126 498.019 640.126C482.193 640.126 469.366 652.959 469.366 668.791C469.366 684.624 482.193 697.456 498.019 697.456C513.846 697.456 526.673 684.688 526.673 668.855Z" fill="#07E897"/>
<path d="M520.706 651.331C522.046 653.087 523.227 655.002 524.152 657.045L498.051 676.293L487.139 669.462V661.226L498.051 668.057L520.706 651.331Z" fill="#07E897"/>
<path d="M57.3067 748.848C57.3067 747.093 57.1471 745.369 56.86 743.709L50.7017 748.242C50.7017 748.433 50.7017 748.625 50.7017 748.816C50.7017 760.978 40.8103 770.874 28.6533 770.874C16.4964 770.874 6.63685 760.978 6.63685 748.816C6.63685 736.655 16.5283 726.759 28.6533 726.759C33.2481 726.759 37.5238 728.164 41.0655 730.59L46.6494 726.472C41.7356 722.482 35.4816 720.12 28.6533 720.12C12.827 720.12 0 732.952 0 748.784C0 764.617 12.827 777.449 28.6533 777.449C44.4797 777.513 57.3067 764.681 57.3067 748.848Z" fill="#07E897"/>
<path d="M51.3397 731.324C52.6799 733.08 53.8605 734.995 54.7858 737.038L28.6851 756.286L17.7726 749.455V741.22L28.6851 748.051L51.3397 731.324Z" fill="#07E897"/>
<path d="M191.416 748.848C191.416 747.093 191.256 745.369 190.969 743.709L184.811 748.242C184.811 748.433 184.811 748.625 184.811 748.816C184.811 760.978 174.919 770.874 162.762 770.874C150.606 770.874 140.746 760.978 140.746 748.816C140.746 736.655 150.637 726.759 162.762 726.759C167.357 726.759 171.633 728.164 175.175 730.59L180.759 726.472C175.845 722.482 169.591 720.12 162.762 720.12C146.936 720.12 134.109 732.952 134.109 748.784C134.109 764.617 146.936 777.449 162.762 777.449C178.589 777.513 191.416 764.681 191.416 748.848Z" fill="#07E897"/>
<path d="M185.449 731.324C186.789 733.08 187.97 734.995 188.895 737.038L162.794 756.286L151.882 749.455V741.22L162.794 748.051L185.449 731.324Z" fill="#07E897"/>
<path d="M325.525 748.848C325.525 747.093 325.365 745.369 325.078 743.709L318.92 748.242C318.92 748.433 318.92 748.625 318.92 748.816C318.92 760.978 309.029 770.874 296.872 770.874C284.715 770.874 274.855 760.978 274.855 748.816C274.855 736.655 284.747 726.759 296.872 726.759C301.466 726.759 305.742 728.164 309.284 730.59L314.868 726.472C309.954 722.482 303.7 720.12 296.872 720.12C281.045 720.12 268.218 732.952 268.218 748.784C268.218 764.617 281.045 777.449 296.872 777.449C312.698 777.513 325.525 764.681 325.525 748.848Z" fill="#07E897"/>
<path d="M319.558 731.324C320.898 733.08 322.079 734.995 323.004 737.038L296.904 756.286L285.991 749.455V741.22L296.904 748.051L319.558 731.324Z" fill="#07E897"/>
<path d="M459.634 748.848C459.634 747.093 459.475 745.369 459.187 743.709L453.029 748.242C453.029 748.433 453.029 748.625 453.029 748.816C453.029 760.978 443.138 770.874 430.981 770.874C418.824 770.874 408.964 760.978 408.964 748.816C408.964 736.655 418.856 726.759 430.981 726.759C435.575 726.759 439.851 728.164 443.393 730.59L448.977 726.472C444.063 722.482 437.809 720.12 430.981 720.12C415.154 720.12 402.327 732.952 402.327 748.784C402.327 764.617 415.154 777.449 430.981 777.449C446.807 777.513 459.634 764.681 459.634 748.848Z" fill="#07E897"/>
<path d="M453.635 731.324C454.975 733.08 456.156 734.995 457.081 737.038L430.981 756.286L420.068 749.455V741.22L430.981 748.051L453.635 731.324Z" fill="#07E897"/>
<path d="M593.743 748.848C593.743 747.093 593.584 745.369 593.297 743.709L587.138 748.242C587.138 748.433 587.138 748.625 587.138 748.816C587.138 760.978 577.247 770.874 565.09 770.874C552.933 770.874 543.073 760.978 543.073 748.816C543.073 736.655 552.965 726.759 565.09 726.759C569.685 726.759 573.96 728.164 577.502 730.59L583.086 726.472C578.172 722.482 571.918 720.12 565.09 720.12C549.264 720.12 536.437 732.952 536.437 748.784C536.437 764.617 549.264 777.449 565.09 777.449C580.916 777.513 593.743 764.681 593.743 748.848Z" fill="#07E897"/>
<path d="M587.744 731.324C589.084 733.08 590.265 734.995 591.19 737.038L565.09 756.286L554.177 749.455V741.22L565.09 748.051L587.744 731.324Z" fill="#07E897"/>
<path d="M124.377 828.81C124.377 827.054 124.218 825.33 123.931 823.67L117.772 828.203C117.772 828.395 117.772 828.586 117.772 828.778C117.772 840.94 107.881 850.835 95.7239 850.835C83.567 850.835 73.7074 840.94 73.7074 828.778C73.7074 816.616 83.5989 806.721 95.7239 806.721C100.319 806.721 104.594 808.125 108.136 810.551L113.72 806.433C108.806 802.443 102.552 800.081 95.7239 800.081C79.8976 800.081 67.0706 812.913 67.0706 828.746C67.0706 844.578 79.8976 857.411 95.7239 857.411C111.518 857.474 124.377 844.642 124.377 828.81Z" fill="#07E897"/>
<path d="M118.378 811.286C119.719 813.041 120.899 814.956 121.825 816.999L95.7238 836.247L84.8113 829.417V821.181L95.7238 828.012L118.378 811.286Z" fill="#07E897"/>
<path d="M258.454 828.81C258.454 827.054 258.295 825.33 258.008 823.67L251.849 828.203C251.849 828.395 251.849 828.586 251.849 828.778C251.849 840.94 241.958 850.835 229.801 850.835C217.644 850.835 207.753 840.94 207.753 828.778C207.753 816.616 217.644 806.721 229.801 806.721C234.396 806.721 238.671 808.125 242.213 810.551L247.797 806.433C242.883 802.443 236.629 800.081 229.801 800.081C213.975 800.081 201.148 812.913 201.148 828.746C201.148 844.578 213.975 857.411 229.801 857.411C245.627 857.411 258.454 844.642 258.454 828.81Z" fill="#07E897"/>
<path d="M252.488 811.286C253.828 813.041 255.008 814.956 255.934 816.999L229.833 836.247L218.92 829.417V821.181L229.833 828.012L252.488 811.286Z" fill="#07E897"/>
<path d="M392.564 828.81C392.564 827.054 392.404 825.33 392.117 823.67L385.959 828.203C385.959 828.395 385.959 828.586 385.959 828.778C385.959 840.94 376.067 850.835 363.91 850.835C351.753 850.835 341.894 840.94 341.894 828.778C341.894 816.616 351.785 806.721 363.91 806.721C368.505 806.721 372.781 808.125 376.322 810.551L381.906 806.433C376.992 802.443 370.738 800.081 363.91 800.081C348.084 800.081 335.257 812.913 335.257 828.746C335.257 844.578 348.084 857.411 363.91 857.411C379.737 857.474 392.564 844.642 392.564 828.81Z" fill="#07E897"/>
<path d="M386.597 811.286C387.937 813.041 389.118 814.956 390.043 816.999L363.942 836.247L353.03 829.417V821.181L363.942 828.012L386.597 811.286Z" fill="#07E897"/>
<path d="M526.673 828.81C526.673 827.054 526.513 825.33 526.226 823.67L520.068 828.203C520.068 828.395 520.068 828.586 520.068 828.778C520.068 840.94 510.176 850.835 498.019 850.835C485.862 850.835 475.971 840.94 475.971 828.778C475.971 816.616 485.862 806.721 498.019 806.721C502.614 806.721 506.89 808.125 510.431 810.551L516.015 806.433C511.102 802.443 504.848 800.081 498.019 800.081C482.193 800.081 469.366 812.913 469.366 828.746C469.366 844.578 482.193 857.411 498.019 857.411C513.846 857.411 526.673 844.642 526.673 828.81Z" fill="#07E897"/>
<path d="M520.706 811.286C522.046 813.041 523.227 814.956 524.152 816.999L498.051 836.247L487.139 829.417V821.181L498.051 828.012L520.706 811.286Z" fill="#07E897"/>
<path d="M57.3067 908.771C57.3067 907.015 57.1471 905.292 56.86 903.632L50.7017 908.165C50.7017 908.356 50.7017 908.548 50.7017 908.739C50.7017 920.901 40.8103 930.796 28.6533 930.796C16.4964 930.796 6.63685 920.901 6.63685 908.739C6.63685 896.577 16.5283 886.682 28.6533 886.682C33.2481 886.682 37.5238 888.086 41.0655 890.512L46.6494 886.395C41.7356 882.405 35.4816 880.042 28.6533 880.042C12.827 880.042 0 892.875 0 908.707C0 924.54 12.827 937.372 28.6533 937.372C44.4797 937.436 57.3067 924.604 57.3067 908.771Z" fill="#07E897"/>
<path d="M51.3397 891.247C52.6799 893.002 53.8605 894.917 54.7858 896.96L28.6851 916.209L17.7726 909.378V901.142L28.6851 907.973L51.3397 891.247Z" fill="#07E897"/>
<path d="M191.416 908.771C191.416 907.015 191.256 905.292 190.969 903.632L184.811 908.165C184.811 908.356 184.811 908.548 184.811 908.739C184.811 920.901 174.919 930.796 162.762 930.796C150.606 930.796 140.746 920.901 140.746 908.739C140.746 896.577 150.637 886.682 162.762 886.682C167.357 886.682 171.633 888.086 175.175 890.512L180.759 886.395C175.845 882.405 169.591 880.042 162.762 880.042C146.936 880.042 134.109 892.875 134.109 908.707C134.109 924.54 146.936 937.372 162.762 937.372C178.589 937.436 191.416 924.604 191.416 908.771Z" fill="#07E897"/>
<path d="M185.449 891.247C186.789 893.002 187.97 894.917 188.895 896.96L162.794 916.209L151.882 909.378V901.142L162.794 907.973L185.449 891.247Z" fill="#07E897"/>
<path d="M325.525 908.771C325.525 907.015 325.365 905.292 325.078 903.632L318.92 908.165C318.92 908.356 318.92 908.548 318.92 908.739C318.92 920.901 309.029 930.796 296.872 930.796C284.715 930.796 274.855 920.901 274.855 908.739C274.855 896.577 284.747 886.682 296.872 886.682C301.466 886.682 305.742 888.086 309.284 890.512L314.868 886.395C309.954 882.405 303.7 880.042 296.872 880.042C281.045 880.042 268.218 892.875 268.218 908.707C268.218 924.54 281.045 937.372 296.872 937.372C312.698 937.436 325.525 924.604 325.525 908.771Z" fill="#07E897"/>
<path d="M319.558 891.247C320.898 893.002 322.079 894.917 323.004 896.96L296.904 916.209L285.991 909.378V901.142L296.904 907.973L319.558 891.247Z" fill="#07E897"/>
<path d="M459.634 908.771C459.634 907.015 459.475 905.292 459.187 903.632L453.029 908.165C453.029 908.356 453.029 908.548 453.029 908.739C453.029 920.901 443.138 930.796 430.981 930.796C418.824 930.796 408.964 920.901 408.964 908.739C408.964 896.577 418.856 886.682 430.981 886.682C435.575 886.682 439.851 888.086 443.393 890.512L448.977 886.395C444.063 882.405 437.809 880.042 430.981 880.042C415.154 880.042 402.327 892.875 402.327 908.707C402.327 924.54 415.154 937.372 430.981 937.372C446.807 937.436 459.634 924.604 459.634 908.771Z" fill="#07E897"/>
<path d="M453.635 891.247C454.975 893.002 456.156 894.917 457.081 896.96L430.981 916.209L420.068 909.378V901.142L430.981 907.973L453.635 891.247Z" fill="#07E897"/>
<path d="M593.743 908.771C593.743 907.015 593.584 905.292 593.297 903.632L587.138 908.165C587.138 908.356 587.138 908.548 587.138 908.739C587.138 920.901 577.247 930.796 565.09 930.796C552.933 930.796 543.073 920.901 543.073 908.739C543.073 896.577 552.965 886.682 565.09 886.682C569.685 886.682 573.96 888.086 577.502 890.512L583.086 886.395C578.172 882.405 571.918 880.042 565.09 880.042C549.264 880.042 536.437 892.875 536.437 908.707C536.437 924.54 549.264 937.372 565.09 937.372C580.916 937.436 593.743 924.604 593.743 908.771Z" fill="#07E897"/>
<path d="M587.744 891.247C589.084 893.002 590.265 894.917 591.19 896.96L565.09 916.209L554.177 909.378V901.142L565.09 907.973L587.744 891.247Z" fill="#07E897"/>
<path d="M727.852 588.894C727.852 587.138 727.693 585.414 727.406 583.754L721.247 588.287C721.247 588.479 721.247 588.67 721.247 588.862C721.247 601.023 711.356 610.919 699.199 610.919C687.042 610.919 677.151 601.023 677.151 588.862C677.151 576.7 687.042 566.805 699.199 566.805C703.794 566.805 708.07 568.209 711.611 570.635L717.195 566.517C712.281 562.527 706.027 560.165 699.199 560.165C683.373 560.165 670.546 572.997 670.546 588.83C670.546 604.662 683.373 617.495 699.199 617.495C715.025 617.558 727.852 604.726 727.852 588.894Z" fill="#07E897"/>
<path d="M721.854 571.37C723.194 573.125 724.374 575.04 725.3 577.083L699.199 596.332L688.286 589.501V581.265L699.199 588.096L721.854 571.37Z" fill="#07E897"/>
<path d="M593.743 588.894C593.743 587.138 593.584 585.414 593.297 583.754L587.138 588.287C587.138 588.479 587.138 588.67 587.138 588.862C587.138 601.023 577.247 610.919 565.09 610.919C552.933 610.919 543.073 601.023 543.073 588.862C543.073 576.7 552.965 566.805 565.09 566.805C569.685 566.805 573.96 568.209 577.502 570.635L583.086 566.517C578.172 562.527 571.918 560.165 565.09 560.165C549.264 560.165 536.437 572.997 536.437 588.83C536.437 604.662 549.264 617.495 565.09 617.495C580.916 617.558 593.743 604.726 593.743 588.894Z" fill="#07E897"/>
<path d="M587.744 571.37C589.084 573.125 590.265 575.04 591.19 577.083L565.09 596.332L554.177 589.501V581.265L565.09 588.096L587.744 571.37Z" fill="#07E897"/>
<path d="M861.961 588.894C861.961 587.138 861.802 585.414 861.515 583.754L855.356 588.287C855.356 588.479 855.356 588.67 855.356 588.862C855.356 601.023 845.465 610.919 833.308 610.919C821.151 610.919 811.292 601.023 811.292 588.862C811.292 576.7 821.183 566.805 833.308 566.805C837.903 566.805 842.178 568.209 845.72 570.635L851.304 566.517C846.39 562.527 840.136 560.165 833.308 560.165C817.482 560.165 804.655 572.997 804.655 588.83C804.655 604.662 817.482 617.495 833.308 617.495C849.103 617.558 861.961 604.726 861.961 588.894Z" fill="#07E897"/>
<path d="M855.963 571.37C857.303 573.125 858.483 575.04 859.409 577.083L833.308 596.332L822.396 589.501V581.265L833.308 588.096L855.963 571.37Z" fill="#07E897"/>
<path d="M660.782 668.855C660.782 667.099 660.622 665.376 660.335 663.716L654.177 668.249C654.177 668.44 654.177 668.632 654.177 668.823C654.177 680.985 644.285 690.88 632.128 690.88C619.972 690.88 610.112 680.985 610.112 668.823C610.112 656.661 620.003 646.766 632.128 646.766C636.723 646.766 640.999 648.17 644.541 650.596L650.125 646.479C645.211 642.489 638.957 640.126 632.128 640.126C616.302 640.126 603.475 652.959 603.475 668.791C603.475 684.624 616.302 697.456 632.128 697.456C647.955 697.52 660.782 684.688 660.782 668.855Z" fill="#07E897"/>
<path d="M654.815 651.331C656.155 653.087 657.336 655.002 658.261 657.045L632.16 676.293L621.248 669.462V661.226L632.16 668.057L654.815 651.331Z" fill="#07E897"/>
<path d="M794.891 668.855C794.891 667.099 794.731 665.376 794.444 663.716L788.286 668.249C788.286 668.44 788.286 668.632 788.286 668.823C788.286 680.985 778.395 690.88 766.238 690.88C754.081 690.88 744.221 680.985 744.221 668.823C744.221 656.661 754.113 646.766 766.238 646.766C770.832 646.766 775.108 648.17 778.65 650.596L784.234 646.479C779.32 642.489 773.066 640.126 766.238 640.126C750.411 640.126 737.584 652.959 737.584 668.791C737.584 684.624 750.411 697.456 766.238 697.456C782.064 697.456 794.891 684.688 794.891 668.855Z" fill="#07E897"/>
<path d="M788.924 651.331C790.264 653.087 791.445 655.002 792.37 657.045L766.269 676.293L755.357 669.462V661.226L766.269 668.057L788.924 651.331Z" fill="#07E897"/>
<path d="M929 668.855C929 667.099 928.84 665.376 928.553 663.716L922.395 668.249C922.395 668.44 922.395 668.632 922.395 668.823C922.395 680.985 912.504 690.88 900.347 690.88C888.19 690.88 878.298 680.985 878.298 668.823C878.298 656.661 888.19 646.766 900.347 646.766C904.941 646.766 909.217 648.17 912.759 650.596L918.343 646.479C913.429 642.489 907.175 640.126 900.347 640.126C884.52 640.126 871.693 652.959 871.693 668.791C871.693 684.624 884.52 697.456 900.347 697.456C916.173 697.52 929 684.688 929 668.855Z" fill="#07E897"/>
<path d="M923.033 651.331C924.373 653.087 925.554 655.002 926.479 657.045L900.379 676.293L889.466 669.462V661.226L900.379 668.057L923.033 651.331Z" fill="#07E897"/>
<path d="M727.852 748.848C727.852 747.093 727.693 745.369 727.406 743.709L721.247 748.242C721.247 748.433 721.247 748.625 721.247 748.816C721.247 760.978 711.356 770.874 699.199 770.874C687.042 770.874 677.151 760.978 677.151 748.816C677.151 736.655 687.042 726.759 699.199 726.759C703.794 726.759 708.07 728.164 711.611 730.59L717.195 726.472C712.281 722.482 706.027 720.12 699.199 720.12C683.373 720.12 670.546 732.952 670.546 748.784C670.546 764.617 683.373 777.449 699.199 777.449C715.025 777.513 727.852 764.681 727.852 748.848Z" fill="#07E897"/>
<path d="M721.854 731.324C723.194 733.08 724.374 734.995 725.3 737.038L699.199 756.286L688.286 749.455V741.22L699.199 748.051L721.854 731.324Z" fill="#07E897"/>
<path d="M593.743 748.848C593.743 747.093 593.584 745.369 593.297 743.709L587.138 748.242C587.138 748.433 587.138 748.625 587.138 748.816C587.138 760.978 577.247 770.874 565.09 770.874C552.933 770.874 543.073 760.978 543.073 748.816C543.073 736.655 552.965 726.759 565.09 726.759C569.685 726.759 573.96 728.164 577.502 730.59L583.086 726.472C578.172 722.482 571.918 720.12 565.09 720.12C549.264 720.12 536.437 732.952 536.437 748.784C536.437 764.617 549.264 777.449 565.09 777.449C580.916 777.513 593.743 764.681 593.743 748.848Z" fill="#07E897"/>
<path d="M587.744 731.324C589.084 733.08 590.265 734.995 591.19 737.038L565.09 756.286L554.177 749.455V741.22L565.09 748.051L587.744 731.324Z" fill="#07E897"/>
<path d="M861.961 748.848C861.961 747.093 861.802 745.369 861.515 743.709L855.356 748.242C855.356 748.433 855.356 748.625 855.356 748.816C855.356 760.978 845.465 770.874 833.308 770.874C821.151 770.874 811.292 760.978 811.292 748.816C811.292 736.655 821.183 726.759 833.308 726.759C837.903 726.759 842.178 728.164 845.72 730.59L851.304 726.472C846.39 722.482 840.136 720.12 833.308 720.12C817.482 720.12 804.655 732.952 804.655 748.784C804.655 764.617 817.482 777.449 833.308 777.449C849.103 777.513 861.961 764.681 861.961 748.848Z" fill="#07E897"/>
<path d="M855.963 731.324C857.303 733.08 858.483 734.995 859.409 737.038L833.308 756.286L822.396 749.455V741.22L833.308 748.051L855.963 731.324Z" fill="#07E897"/>
<path d="M660.782 828.81C660.782 827.054 660.622 825.33 660.335 823.67L654.177 828.203C654.177 828.395 654.177 828.586 654.177 828.778C654.177 840.94 644.285 850.835 632.128 850.835C619.972 850.835 610.112 840.94 610.112 828.778C610.112 816.616 620.003 806.721 632.128 806.721C636.723 806.721 640.999 808.125 644.541 810.551L650.125 806.433C645.211 802.443 638.957 800.081 632.128 800.081C616.302 800.081 603.475 812.913 603.475 828.746C603.475 844.578 616.302 857.411 632.128 857.411C647.955 857.474 660.782 844.642 660.782 828.81Z" fill="#07E897"/>
<path d="M654.815 811.286C656.155 813.041 657.336 814.956 658.261 816.999L632.16 836.247L621.248 829.417V821.181L632.16 828.012L654.815 811.286Z" fill="#07E897"/>
<path d="M794.891 828.81C794.891 827.054 794.731 825.33 794.444 823.67L788.286 828.203C788.286 828.395 788.286 828.586 788.286 828.778C788.286 840.94 778.395 850.835 766.238 850.835C754.081 850.835 744.221 840.94 744.221 828.778C744.221 816.616 754.113 806.721 766.238 806.721C770.832 806.721 775.108 808.125 778.65 810.551L784.234 806.433C779.32 802.443 773.066 800.081 766.238 800.081C750.411 800.081 737.584 812.913 737.584 828.746C737.584 844.578 750.411 857.411 766.238 857.411C782.064 857.411 794.891 844.642 794.891 828.81Z" fill="#07E897"/>
<path d="M788.924 811.286C790.264 813.041 791.445 814.956 792.37 816.999L766.269 836.247L755.357 829.417V821.181L766.269 828.012L788.924 811.286Z" fill="#07E897"/>
<path d="M929 828.81C929 827.054 928.84 825.33 928.553 823.67L922.395 828.203C922.395 828.395 922.395 828.586 922.395 828.778C922.395 840.94 912.504 850.835 900.347 850.835C888.19 850.835 878.298 840.94 878.298 828.778C878.298 816.616 888.19 806.721 900.347 806.721C904.941 806.721 909.217 808.125 912.759 810.551L918.343 806.433C913.429 802.443 907.175 800.081 900.347 800.081C884.52 800.081 871.693 812.913 871.693 828.746C871.693 844.578 884.52 857.411 900.347 857.411C916.173 857.474 929 844.642 929 828.81Z" fill="#07E897"/>
<path d="M923.033 811.286C924.373 813.041 925.554 814.956 926.479 816.999L900.379 836.247L889.466 829.417V821.181L900.379 828.012L923.033 811.286Z" fill="#07E897"/>
<path d="M727.852 908.771C727.852 907.015 727.693 905.292 727.406 903.632L721.247 908.165C721.247 908.356 721.247 908.548 721.247 908.739C721.247 920.901 711.356 930.796 699.199 930.796C687.042 930.796 677.151 920.901 677.151 908.739C677.151 896.577 687.042 886.682 699.199 886.682C703.794 886.682 708.07 888.086 711.611 890.512L717.195 886.395C712.281 882.405 706.027 880.042 699.199 880.042C683.373 880.042 670.546 892.875 670.546 908.707C670.546 924.54 683.373 937.372 699.199 937.372C715.025 937.436 727.852 924.604 727.852 908.771Z" fill="#07E897"/>
<path d="M721.854 891.247C723.194 893.002 724.374 894.917 725.3 896.96L699.199 916.209L688.286 909.378V901.142L699.199 907.973L721.854 891.247Z" fill="#07E897"/>
<path d="M593.743 908.771C593.743 907.015 593.584 905.292 593.297 903.632L587.138 908.165C587.138 908.356 587.138 908.548 587.138 908.739C587.138 920.901 577.247 930.796 565.09 930.796C552.933 930.796 543.073 920.901 543.073 908.739C543.073 896.577 552.965 886.682 565.09 886.682C569.685 886.682 573.96 888.086 577.502 890.512L583.086 886.395C578.172 882.405 571.918 880.042 565.09 880.042C549.264 880.042 536.437 892.875 536.437 908.707C536.437 924.54 549.264 937.372 565.09 937.372C580.916 937.436 593.743 924.604 593.743 908.771Z" fill="#07E897"/>
<path d="M587.744 891.247C589.084 893.002 590.265 894.917 591.19 896.96L565.09 916.209L554.177 909.378V901.142L565.09 907.973L587.744 891.247Z" fill="#07E897"/>
<path d="M861.961 908.771C861.961 907.015 861.802 905.292 861.515 903.632L855.356 908.165C855.356 908.356 855.356 908.548 855.356 908.739C855.356 920.901 845.465 930.796 833.308 930.796C821.151 930.796 811.292 920.901 811.292 908.739C811.292 896.577 821.183 886.682 833.308 886.682C837.903 886.682 842.178 888.086 845.72 890.512L851.304 886.395C846.39 882.405 840.136 880.042 833.308 880.042C817.482 880.042 804.655 892.875 804.655 908.707C804.655 924.54 817.482 937.372 833.308 937.372C849.103 937.436 861.961 924.604 861.961 908.771Z" fill="#07E897"/>
<path d="M855.963 891.247C857.303 893.002 858.483 894.917 859.409 896.96L833.308 916.209L822.396 909.378V901.142L833.308 907.973L855.963 891.247Z" fill="#07E897"/>
</svg>
